<!-- Downloaded from @radix-ui/icons -->
<!-- License https://github.com/radix-ui/icons/blob/master/LICENSE -->
<!-- https://github.com/radix-ui/icons/blob/master/packages/radix-icons/icons/arrow-bottom-left.svg -->
<!-- @radix-ui/icons -->
<!-- https://github.com/radix-ui/icons/blob/master/LICENSE -->
<svg width="15" height="15" viewBox="0 0 15 15" fill="none" xmlns="http://www.w3.org/2000/svg">
  <path fill-rule="evenodd" clip-rule="evenodd" d="
    M11.3536 3.64644
    C11.5488 3.8417 11.5488 4.15828 11.3536 4.35354
    L4.70711 11
    L9 11
    C9.27614 11 9.5 11.2239 9.5 11.5
    C9.5 11.7761 9.27614 12 9 12
    L3.5 12
    C3.36739 12 3.24021 11.9473 3.14645 11.8536
    C3.05268 11.7598 3 11.6326 3 11.5
    L3 5.99999
    C3 5.72385 3.22386 5.49999 3.5 5.49999
    C3.77614 5.49999 4 5.72385 4 5.99999
    V10.2929
    L10.6464 3.64643
    C10.8417 3.45117 11.1583 3.45117 11.3536 3.64644
    Z" fill="currentColor" />
</svg>